<?xml version="1.0" standalone="no"?>
<!DOCTYPE svg PUBLIC "-//W3C//DTD SVG 20010904//EN" "http://www.w3.org/TR/2001/REC-SVG-20010904/DTD/svg10.dtd">
<svg version="1.0" xmlns="http://www.w3.org/2000/svg" width="1109.000000pt" height="279.000000pt"
    viewBox="0 0 1109.000000 279.000000" preserveAspectRatio="xMidYMid meet">

    <g transform="translate(0.000000,279.000000) scale(0.100000,-0.100000)" fill="#00b7ff" stroke="none">
        <path d="M3871 2696 c-53 -29 -50 37 -51 -1378 l0 -1318 1765 0 1765 0 0 1315
c0 997 -3 1320 -12 1340 -26 58 81 55 -1755 55 -1382 -1 -1692 -3 -1712 -14z
m3178 -146 c12 -6 28 -6 47 1 37 14 80 -2 95 -35 20 -44 3 -89 -61 -157 l-60
-64 -59 62 c-65 67 -83 114 -62 159 16 37 65 53 100 34z m-1446 -874 c8 -20
-20 -43 -35 -28 -14 14 -3 42 16 42 7 0 16 -6 19 -14z m107 -30 c0 -18 -8 -27
-30 -35 -16 -5 -30 -15 -30 -22 0 -6 7 -9 15 -5 20 7 19 -4 -2 -19 -13 -10 -2
-13 68 -19 138 -12 248 -35 308 -64 90 -44 79 -63 -59 -103 -104 -30 -265 -42
-474 -36 -220 7 -365 34 -417 76 -20 16 -21 21 -10 34 33 40 204 82 384 94 82
5 97 4 97 -9 0 -12 -20 -16 -97 -22 -149 -10 -273 -45 -273 -77 0 -23 48 -49
120 -66 111 -27 433 -26 544 1 92 23 140 56 116 79 -32 31 -204 67 -321 67
-38 0 -49 -4 -49 -16 0 -8 -4 -12 -10 -9 -5 3 -10 19 -10 36 0 16 -5 29 -11
29 -6 0 -9 6 -6 14 3 8 1 17 -6 20 -7 2 2 5 19 5 22 1 39 11 61 36 37 42 73
47 73 11z m-217 -63 c-7 -2 -19 -2 -25 0 -7 3 -2 5 12 5 14 0 19 -2 13 -5z
m-445 -103 c-7 -11 -16 -20 -20 -20 -3 0 -5 -6 -4 -14 3 -23 67 -70 111 -82
193 -51 501 -65 720 -33 104 16 226 50 232 65 3 8 9 12 13 9 5 -3 15 8 23 25
9 16 12 30 7 30 -4 0 -10 9 -13 19 -5 22 9 19 51 -7 169 -108 -241 -216 -728
-191 -232 12 -441 65 -470 120 -15 27 2 54 48 78 20 11 38 20 40 21 1 0 -3 -9
-10 -20z m516 -15 c7 -20 33 -19 44 1 8 14 18 15 56 10 25 -4 46 -11 46 -16 0
-9 -86 -30 -125 -30 -38 0 -125 21 -125 30 0 20 96 25 104 5z m-193 -4 c-11
-7 -8 -13 13 -26 37 -24 246 -33 352 -15 66 12 75 15 71 32 -5 17 -2 18 26 12
18 -3 37 -10 43 -15 6 -5 19 -6 29 -3 13 5 16 3 13 -7 -17 -52 -357 -73 -578
-37 -36 6 -73 15 -83 20 -21 11 -12 32 10 24 9 -4 21 -2 27 3 13 10 42 18 71
20 15 0 17 -1 6 -8z m-1271 -452 c14 -57 20 -56 35 4 9 35 16 43 37 45 23 3
27 -1 33 -35 11 -67 22 -72 38 -17 10 37 19 50 35 52 27 4 27 6 -2 -98 -20
-75 -26 -85 -46 -85 -19 0 -27 9 -40 50 -11 30 -20 44 -23 35 -3 -8 -11 -32
-17 -52 -8 -27 -17 -38 -30 -38 -24 0 -34 18 -54 97 -9 34 -19 69 -22 78 -5
11 1 15 19 15 22 0 27 -6 37 -51z m369 -30 c17 -44 31 -87 31 -95 0 -22 -38
-17 -45 6 -5 15 -15 20 -40 20 -24 0 -38 -6 -45 -20 -9 -17 -50 -30 -50 -16 0
7 60 167 66 177 3 5 16 9 29 9 20 0 28 -11 54 -81z m221 61 c0 -16 -7 -20 -30
-20 l-30 0 0 -75 c0 -68 -2 -75 -20 -75 -18 0 -20 7 -20 75 l0 75 -30 0 c-23
0 -30 4 -30 20 0 18 7 20 80 20 73 0 80 -2 80 -20z m210 0 c0 -17 -7 -20 -50
-20 -38 0 -50 -4 -50 -15 0 -10 11 -15 35 -15 28 0 35 -4 35 -20 0 -16 -7 -20
-35 -20 -28 0 -35 -4 -35 -20 0 -17 7 -20 50 -20 43 0 50 -3 50 -20 0 -18 -7
-20 -75 -20 l-75 0 0 95 0 95 75 0 c68 0 75 -2 75 -20z m206 -5 c17 -26 12
-74 -9 -87 -8 -5 -7 -15 3 -35 8 -15 16 -32 18 -36 2 -5 -6 -7 -19 -5 -14 2
-32 17 -44 35 -25 41 -49 39 -53 -5 -2 -24 -8 -32 -23 -32 -17 0 -19 8 -19 95
l0 95 65 0 c58 0 66 -3 81 -25z m296 8 c22 -20 24 -76 2 -97 -9 -9 -32 -16
-54 -16 -35 0 -39 -3 -42 -27 -2 -20 -9 -29 -25 -31 -22 -3 -23 -1 -23 92 l0
96 62 0 c43 0 67 -5 80 -17z m243 -8 c28 -27 33 -76 14 -119 -23 -50 -132 -59
-164 -13 -8 12 -15 41 -15 65 0 61 32 92 95 92 35 0 52 -6 70 -25z m125 -50
l0 -75 55 0 c48 0 55 -2 55 -20 0 -18 -7 -20 -75 -20 l-75 0 0 95 c0 88 1 95
20 95 18 0 20 -7 20 -75z m210 0 l0 -75 56 0 c47 0 55 -3 52 -17 -3 -15 -16
-19 -76 -21 l-72 -3 0 96 c0 88 1 95 20 95 18 0 20 -7 20 -75z m210 12 c0 -68
10 -87 47 -87 30 0 43 28 43 94 0 49 2 56 20 56 18 0 20 -7 20 -73 0 -58 -4
-77 -17 -90 -27 -23 -68 -30 -107 -17 -41 13 -56 47 -56 126 0 51 1 54 25 54
24 0 25 -2 25 -63z m350 43 c0 -15 -7 -20 -25 -20 -24 0 -25 -3 -25 -59 0 -72
-6 -91 -31 -91 -17 0 -19 8 -19 75 l0 75 -30 0 c-23 0 -30 4 -30 20 0 18 7 20
80 20 73 0 80 -2 80 -20z m108 -72 c-3 -88 -4 -93 -25 -96 -22 -3 -23 -1 -23
92 l0 96 25 0 26 0 -3 -92z m222 72 c27 -27 28 -108 1 -141 -16 -20 -29 -24
-71 -24 -45 0 -55 4 -77 29 -21 25 -24 37 -20 75 7 59 33 81 98 81 36 0 54 -5
69 -20z m173 -37 l36 -58 1 58 c0 54 1 57 25 57 l26 0 -3 -92 c-3 -88 -4 -93
-25 -96 -18 -3 -31 9 -62 58 l-40 61 -3 -58 c-3 -50 -6 -58 -23 -58 -18 0 -20
8 -23 93 l-3 92 29 0 c24 0 35 -9 65 -57z" />
        <path d="M6992 2508 c-20 -20 -14 -52 16 -94 54 -73 59 -75 103 -25 22 24 42
55 46 69 12 48 -32 79 -67 47 -17 -16 -21 -16 -42 -1 -27 19 -40 20 -56 4z" />
        <path d="M4407 983 c-12 -12 -7 -33 8 -33 17 0 19 9 7 28 -5 7 -11 9 -15 5z" />
        <path d="M5002 998 c2 -18 10 -23 33 -23 23 0 31 5 33 23 3 19 -1 22 -33 22
-32 0 -36 -3 -33 -22z" />
        <path d="M5310 995 c0 -21 5 -25 30 -25 25 0 30 4 30 25 0 21 -5 25 -30 25
-25 0 -30 -4 -30 -25z" />
        <path d="M5529 993 c-14 -37 6 -77 42 -81 35 -4 51 19 47 65 -3 36 -5 38 -41
41 -33 3 -38 0 -48 -25z" />
        <path d="M6754 996 c-14 -58 11 -94 59 -82 32 8 45 46 28 82 -8 19 -18 24 -46
24 -28 0 -36 -4 -41 -24z" />
        <path d="M2126 2077 c-26 -34 -34 -81 -16 -92 6 -3 10 -15 10 -26 0 -11 -4
-17 -10 -14 -5 3 -10 15 -10 25 0 26 -38 50 -77 50 -25 0 -33 -4 -33 -17 1
-35 47 -73 88 -73 24 0 38 -16 47 -53 l7 -28 -30 31 c-31 30 -56 37 -80 21
-22 -13 33 -71 68 -71 29 0 40 -15 40 -56 0 -18 -5 -24 -23 -24 -13 0 -32 -6
-42 -14 -18 -13 -18 -16 -2 -66 9 -29 17 -63 17 -75 0 -23 17 -35 51 -35 10 0
19 -4 19 -9 0 -13 -26 -21 -68 -21 l-37 0 0 78 c0 62 -5 88 -26 133 -29 62
-82 120 -134 146 -18 10 -44 34 -57 53 -26 39 -109 86 -134 76 -15 -6 -15 -8
1 -26 18 -20 17 -20 -19 -20 -47 0 -88 -21 -111 -57 -10 -15 -34 -42 -54 -59
-67 -58 -92 -120 -103 -252 -10 -130 0 -178 46 -221 15 -14 22 -30 19 -42 -3
-10 0 -20 6 -20 6 -1 17 -2 24 -3 6 -1 11 -11 10 -23 -5 -47 76 -33 92 16 5
17 10 18 38 10 17 -5 44 -9 59 -9 26 0 28 -3 28 -39 0 -26 -5 -41 -16 -45 -12
-4 -14 -14 -9 -36 6 -29 5 -30 -18 -25 -32 8 -67 -10 -67 -34 0 -25 19 -31 91
-31 66 0 64 -2 74 78 5 43 3 52 -10 52 -11 0 -15 11 -15 40 0 36 3 40 24 40
13 0 31 3 40 6 13 5 16 -2 16 -36 0 -26 -6 -47 -14 -54 -12 -8 -13 -24 -8 -66
l7 -55 71 -3 c55 -2 74 1 84 13 11 13 10 19 -6 36 -14 16 -27 20 -51 16 -24
-4 -33 -2 -33 8 0 8 4 16 10 20 13 8 1 35 -16 35 -10 0 -14 14 -14 53 0 50 2
53 36 72 41 22 89 73 110 119 14 28 19 31 53 28 43 -4 108 20 117 43 3 8 14
15 23 15 54 0 84 77 40 101 -15 8 -18 14 -10 22 15 15 14 44 -1 53 -7 4 -28
10 -48 14 -32 5 -35 8 -35 40 0 30 4 35 32 42 34 9 69 50 58 68 -15 25 -76 4
-88 -30 -4 -10 -6 -8 -6 7 -1 35 10 53 33 53 31 0 62 25 75 60 12 37 -1 46
-43 30 -15 -5 -29 -10 -30 -10 -2 0 -6 19 -9 41 -8 60 -20 66 -51 26z m34 -45
c0 -21 -2 -24 -10 -12 -9 13 -11 13 -20 0 -8 -12 -10 -11 -10 6 0 23 19 46 32
38 4 -3 8 -17 8 -32z m80 -30 c0 -5 -7 -17 -15 -28 -14 -18 -15 -18 -9 0 6 16
5 17 -16 6 -16 -9 -21 -9 -15 0 4 6 17 15 29 20 27 11 26 11 26 2z m-174 -14
c5 -8 2 -9 -9 -5 -22 8 -22 -9 1 -22 9 -6 13 -10 7 -11 -13 0 -26 10 -44 33
-12 15 -11 17 12 17 14 0 29 -5 33 -12z m94 -27 c0 -6 -4 -13 -10 -16 -5 -3
-10 1 -10 9 0 9 5 16 10 16 6 0 10 -4 10 -9z m-422 -85 c10 -10 -45 -56 -67
-56 -24 0 -41 20 -41 48 0 23 2 24 50 20 28 -3 54 -8 58 -12z m340 5 c11 -6 9
-9 -7 -14 -12 -3 -22 1 -25 9 -6 16 12 18 32 5z m142 0 c0 -6 -9 -9 -19 -8
-11 0 -17 5 -15 9 7 11 34 10 34 -1z m-630 -39 c0 -10 7 -27 15 -38 19 -26 19
-43 -2 -51 -26 -9 -93 -78 -93 -95 0 -8 5 -19 11 -25 6 -6 8 -16 5 -22 -11
-18 -76 40 -76 68 0 37 40 109 82 147 43 38 58 42 58 16z m350 -39 c40 -45 66
-102 75 -165 5 -39 3 -48 -8 -48 -8 0 -28 -16 -44 -35 -20 -26 -41 -39 -77
-48 -41 -10 -55 -20 -81 -57 -36 -52 -76 -65 -94 -31 -6 11 -9 26 -7 33 3 7 7
45 11 84 l6 70 -33 15 c-65 28 -34 100 50 114 41 7 79 34 51 36 -8 1 -21 2
-29 3 -8 0 -16 9 -18 20 -3 16 1 18 30 12 18 -3 49 -8 69 -12 22 -3 39 -2 43
5 4 7 -1 11 -13 11 -21 0 -27 11 -14 23 17 18 53 4 83 -30z m281 -106 c-12
-12 -129 -13 -141 -1 -5 5 23 9 70 9 46 0 76 -3 71 -8z m-27 -48 c-4 -7 -7
-25 -6 -40 1 -26 -3 -29 -33 -29 -25 0 -34 5 -39 23 -13 50 -9 57 40 57 31 0
43 -3 38 -11z m-593 -69 c10 -6 19 -16 19 -22 0 -7 11 -24 25 -38 23 -24 24
-30 14 -52 -6 -14 -22 -31 -34 -38 -13 -7 -27 -21 -32 -32 -8 -19 -9 -19 -31
-1 -20 15 -22 22 -13 45 8 22 6 31 -10 52 -26 33 -21 67 11 83 30 15 27 15 51
3z m-119 -152 c31 -40 23 -61 -9 -25 -27 29 -43 61 -43 84 1 16 2 16 12 -2 6
-11 24 -37 40 -57z" />
        <path d="M1912 1694 c2 -22 8 -38 13 -36 15 3 12 65 -3 70 -10 3 -13 -6 -10
-34z" />
        <path d="M1792 1678 c2 -23 8 -33 20 -33 10 0 23 -6 30 -13 17 -17 55 -15 62
4 9 25 -4 37 -19 17 -10 -13 -16 -15 -26 -6 -8 6 -18 11 -24 10 -5 -1 -11 10
-13 26 -5 41 -34 36 -30 -5z" />
        <path d="M9276 2030 c-16 -5 -42 -21 -57 -36 -27 -26 -43 -22 -17 4 22 22 0
24 -44 5 -39 -18 -115 -89 -105 -99 2 -2 24 4 48 15 24 11 86 24 138 30 86 9
98 9 145 -10 79 -32 79 -32 107 -105 15 -38 36 -86 49 -106 12 -21 19 -42 16
-47 -4 -5 3 -25 14 -43 11 -18 20 -40 20 -48 0 -8 -8 0 -16 18 -9 17 -20 32
-25 32 -13 0 -11 -52 4 -80 32 -62 31 -79 -1 -28 -18 28 -22 30 -28 15 -3 -9
-3 -30 0 -45 4 -15 9 -38 12 -52 l4 -25 -11 25 -11 25 -12 -35 c-7 -19 -16
-48 -20 -63 l-7 -28 38 20 c47 25 62 38 91 75 28 37 28 50 0 35 -21 -10 -20
-8 4 18 15 16 30 44 34 63 l5 35 -25 -30 c-28 -33 -34 -25 -11 15 15 27 20 74
7 66 -4 -2 -7 29 -7 70 0 53 -4 74 -12 74 -9 0 -13 15 -13 43 0 46 -31 107
-54 107 -13 0 -13 -4 0 -35 7 -19 14 -51 13 -72 0 -37 -1 -37 -23 25 -26 68
-53 105 -69 95 -6 -4 -7 -1 -3 6 5 8 0 14 -13 18 -12 3 -21 10 -21 15 0 5 -6
8 -12 7 -24 -3 -35 1 -58 21 -25 22 -31 23 -74 10z" />
        <path d="M9370 2016 c0 -2 7 -7 16 -10 8 -3 12 -2 9 4 -6 10 -25 14 -25 6z" />
        <path d="M9285 1897 c16 -12 11 -13 -37 -9 -64 5 -87 -12 -36 -27 29 -8 30 -9
8 -10 -39 -2 -108 -24 -87 -29 24 -5 11 -22 -17 -22 -13 0 -29 -7 -37 -16 -7
-8 -25 -22 -41 -30 -15 -8 -28 -18 -28 -23 0 -5 -18 -27 -40 -49 -29 -28 -38
-45 -33 -58 4 -12 3 -15 -5 -10 -7 4 -12 1 -12 -8 0 -23 7 -20 42 20 17 19 44
42 61 51 29 15 29 14 -10 -33 -62 -75 -74 -104 -69 -173 2 -33 7 -64 11 -70 3
-6 1 -11 -5 -11 -6 0 -4 -12 5 -31 11 -20 34 -39 68 -54 48 -22 50 -24 22 -25
l-30 -1 35 -30 c36 -30 86 -49 130 -49 l25 1 -30 22 c-41 30 -69 61 -120 133
-35 48 -46 75 -54 125 -11 63 -10 65 20 104 16 22 49 68 71 103 23 34 47 62
53 62 6 0 19 16 29 35 11 19 23 35 28 35 5 0 2 -10 -6 -22 -40 -57 -4 -50 51
10 44 46 44 47 23 10 -12 -21 -19 -38 -15 -38 14 0 65 31 77 48 23 31 42 37
22 6 -19 -28 -19 -28 1 -20 11 4 39 12 63 19 23 6 42 14 42 18 0 17 -106 59
-149 59 -40 0 -43 -1 -26 -13z" />
        <path d="M9724 1622 c-7 -33 -28 -95 -47 -137 -28 -63 -45 -86 -89 -120 l-53
-43 -85 14 c-47 8 -98 14 -115 14 -41 0 -133 15 -142 23 -3 4 11 7 32 7 36 0
38 1 23 16 -8 9 -40 19 -69 24 -47 6 -49 8 -16 9 20 0 37 5 37 9 0 13 -57 42
-83 42 -14 0 -29 5 -32 10 -4 7 2 9 19 4 14 -3 26 -4 26 0 0 3 -20 26 -45 50
l-45 45 0 -61 c0 -43 7 -74 22 -106 21 -41 23 -42 28 -21 l6 24 7 -26 c7 -29
44 -79 57 -79 6 0 5 11 0 26 -16 41 -12 40 26 -4 37 -44 58 -54 47 -24 -4 12
2 10 23 -9 29 -26 108 -62 116 -53 3 2 21 -3 41 -11 20 -8 59 -14 88 -13 28 1
46 4 40 6 -6 2 -9 8 -5 13 3 5 -10 9 -28 9 -32 0 -125 36 -117 44 2 3 31 -2
64 -10 59 -13 125 -10 125 7 0 5 6 6 14 3 8 -3 21 4 29 16 8 12 22 22 30 24 8
1 22 8 31 15 9 7 16 10 16 5 0 -5 8 3 17 16 12 18 17 42 16 85 -1 53 0 57 11
36 l13 -23 6 23 c12 42 7 103 -11 142 l-17 39 -11 -60z" />
        <path d="M9550 1256 c0 -2 7 -7 16 -10 8 -3 12 -2 9 4 -6 10 -25 14 -25 6z" />
        <path d="M7872 908 c11 -35 21 -69 23 -75 9 -28 35 -12 46 30 18 63 25 64 39
8 14 -59 43 -71 53 -23 4 15 13 48 21 75 8 26 11 47 6 47 -6 0 -10 -10 -10
-22 -1 -13 -7 -36 -14 -53 l-13 -30 -19 53 c-10 28 -24 52 -31 52 -7 0 -17
-19 -24 -42 -6 -24 -13 -47 -16 -52 -7 -11 -33 49 -33 75 0 13 -7 19 -24 19
l-23 0 19 -62z" />
        <path d="M8156 899 c-18 -41 -32 -76 -29 -79 7 -7 22 22 33 63 6 20 15 37 19
37 5 0 17 -22 27 -50 14 -40 23 -50 40 -50 23 0 23 0 -8 68 -17 37 -35 71 -39
76 -5 6 -23 -23 -43 -65z" />
        <path d="M8310 954 c0 -8 5 -12 10 -9 6 3 10 10 10 16 0 5 -4 9 -10 9 -5 0
-10 -7 -10 -16z" />
        <path d="M8370 926 c0 -24 -3 -58 -6 -75 -6 -28 -4 -31 17 -31 23 0 24 2 21
75 -3 57 -7 75 -18 75 -10 0 -14 -13 -14 -44z" />
        <path d="M8436 956 c3 -9 11 -16 16 -16 13 0 5 23 -10 28 -7 2 -10 -2 -6 -12z" />
        <path d="M8530 895 c0 -71 1 -75 23 -75 21 0 22 4 22 75 0 71 -1 75 -22 75
-22 0 -23 -4 -23 -75z" />
        <path d="M8622 954 c3 -17 21 -21 26 -6 1 5 -4 12 -13 16 -11 4 -15 1 -13 -10z" />
        <path d="M8725 895 c0 -73 1 -75 25 -75 25 0 25 1 22 75 -3 69 -5 75 -25 75
-21 0 -22 -5 -22 -75z" />
        <path d="M8811 949 c8 -16 7 -26 -4 -42 -21 -31 6 -87 41 -87 l24 0 -26 34
c-23 31 -24 36 -10 44 22 13 14 53 -14 63 -20 8 -21 7 -11 -12z" />
        <path d="M9085 895 c0 -71 1 -75 23 -75 21 0 22 4 22 75 0 71 -1 75 -22 75
-22 0 -23 -4 -23 -75z" />
        <path d="M9165 929 c0 -41 13 -50 35 -24 16 19 9 46 -15 55 -18 7 -20 3 -20
-31z" />
        <path d="M9300 952 c-30 -25 -32 -85 -2 -114 29 -29 85 -29 113 -1 29 29 29
91 -1 115 -29 23 -33 19 -18 -19 23 -60 -21 -138 -58 -102 -19 20 -21 103 -4
124 17 21 -3 19 -30 -3z" />
        <path d="M9505 895 c0 -73 1 -75 25 -75 25 0 25 1 22 75 -3 69 -5 75 -25 75
-21 0 -22 -5 -22 -75z" />
        <path d="M9705 895 c0 -71 1 -75 23 -75 21 0 22 4 22 75 0 71 -1 75 -22 75
-22 0 -23 -4 -23 -75z" />
        <path d="M9898 923 c4 -75 10 -89 37 -101 36 -17 68 -16 35 1 -22 11 -25 19
-28 80 -3 62 -5 67 -25 67 -20 0 -22 -4 -19 -47z" />
        <path d="M10018 916 c2 -31 -2 -64 -9 -78 -11 -20 -11 -22 4 -10 18 15 29 142
12 142 -6 0 -9 -22 -7 -54z" />
        <path d="M10110 955 c0 -8 2 -15 4 -15 2 0 6 7 10 15 3 8 1 15 -4 15 -6 0 -10
-7 -10 -15z" />
        <path d="M10158 895 c-3 -73 -2 -75 20 -75 22 0 23 2 20 75 -2 62 -6 75 -20
75 -14 0 -17 -13 -20 -75z" />
        <path d="M10230 961 c0 -5 5 -13 10 -16 6 -3 10 -2 10 4 0 5 -4 13 -10 16 -5
3 -10 2 -10 -4z" />
        <path d="M10323 895 c-2 -71 -1 -75 20 -75 21 0 22 4 22 75 0 68 -2 75 -20 75
-18 0 -20 -8 -22 -75z" />
        <path d="M10466 949 c-50 -39 -26 -122 39 -134 17 -3 23 -2 15 1 -38 16 -54
89 -30 135 14 24 9 24 -24 -2z" />
        <path d="M10549 951 c14 -25 14 -86 1 -112 -14 -26 4 -25 30 1 34 34 23 97
-21 121 -19 9 -19 9 -10 -10z" />
        <path d="M10672 895 c-1 -46 2 -75 8 -75 6 0 10 25 10 56 l0 56 46 -56 c26
-31 52 -56 59 -56 10 0 14 22 17 75 2 46 -1 75 -7 75 -6 0 -9 -21 -7 -50 2
-27 0 -50 -5 -50 -4 0 -27 23 -51 50 -24 28 -48 50 -55 50 -8 0 -13 -25 -15
-75z" />
        <path d="M317 943 c-4 -3 -7 -36 -7 -73 0 -87 12 -98 103 -98 89 -1 97 8 97
104 0 58 -3 74 -15 74 -11 0 -15 -17 -17 -72 -3 -65 -5 -73 -23 -73 -18 0 -21
8 -25 70 -4 53 -9 70 -20 70 -11 0 -16 -17 -20 -70 -4 -53 -9 -70 -20 -70 -11
0 -16 13 -18 50 -4 84 -14 109 -35 88z" />
        <path d="M615 925 c-22 -21 -25 -33 -25 -90 0 -50 3 -65 14 -65 8 0 16 10 18
23 2 18 10 23 46 25 39 3 42 1 42 -22 0 -16 6 -26 15 -26 12 0 15 14 15 65 0
57 -3 69 -25 90 -13 14 -36 25 -50 25 -14 0 -37 -11 -50 -25z m83 -27 c7 -7
12 -20 12 -30 0 -15 -8 -18 -45 -18 -46 0 -53 7 -35 41 12 21 50 25 68 7z" />
        <path d="M810 935 c0 -9 9 -19 20 -22 16 -4 20 -15 22 -71 2 -54 6 -67 21 -70
15 -3 17 5 17 67 0 65 2 70 23 73 12 2 22 10 22 18 0 11 -15 16 -62 18 -53 2
-63 0 -63 -13z" />
        <path d="M1020 860 l0 -90 55 0 c42 0 55 3 55 15 0 11 -11 15 -40 15 -33 0
-40 3 -40 19 0 15 8 21 32 23 22 2 34 9 36 21 3 14 -4 17 -32 17 -51 0 -49 28
1 32 27 2 39 8 41 21 3 14 -5 17 -52 17 l-56 0 0 -90z" />
        <path d="M1217 943 c-4 -3 -7 -44 -7 -90 0 -75 2 -84 18 -81 10 2 18 14 20 31
4 35 23 34 45 -3 29 -48 62 -37 36 11 -8 16 -7 25 5 38 23 25 20 67 -6 85 -22
16 -99 22 -111 9z m98 -58 c0 -15 -8 -21 -32 -23 -30 -3 -33 -1 -33 23 0 24 3
26 33 23 24 -2 32 -8 32 -23z" />
        <path d="M1537 933 c-3 -10 -4 -49 -3 -88 1 -58 4 -70 19 -73 13 -3 17 3 17
27 0 28 3 31 33 31 60 0 88 59 47 100 -27 27 -106 29 -113 3z m98 -48 c0 -15
-8 -21 -32 -23 -30 -3 -33 -1 -33 23 0 24 3 26 33 23 24 -2 32 -8 32 -23z" />
        <path d="M1779 921 c-37 -37 -38 -79 -3 -120 21 -25 33 -31 65 -31 83 0 119
92 60 151 -40 39 -82 39 -122 0z m107 -36 c19 -28 11 -60 -18 -76 -51 -27
-105 29 -73 77 21 33 69 33 91 -1z" />
        <path d="M2010 860 l0 -91 55 3 c64 3 74 22 15 26 l-40 3 0 75 c0 59 -3 74
-15 74 -12 0 -15 -17 -15 -90z" />
        <path d="M2208 938 c-4 -11 -3 -48 1 -145 1 -21 6 -23 56 -23 42 0 55 3 55 15
0 11 -11 15 -40 15 l-39 0 -3 72 c-2 42 -8 73 -14 75 -6 2 -13 -2 -16 -9z" />
        <path d="M2400 880 c0 -83 18 -110 74 -110 51 0 76 36 76 111 0 57 -14 84 -31
58 -5 -8 -9 -40 -9 -71 0 -47 -3 -58 -20 -63 -10 -3 -28 -1 -40 5 -17 9 -20
21 -20 75 0 51 -3 65 -15 65 -12 0 -15 -14 -15 -70z" />
        <path d="M2632 933 c2 -10 13 -19 26 -21 20 -3 22 -9 22 -73 0 -55 3 -69 15
-69 12 0 15 14 15 69 0 65 2 70 23 73 12 2 22 10 22 18 0 11 -15 16 -63 18
-57 3 -63 1 -60 -15z" />
        <path d="M2840 861 c0 -75 3 -91 15 -91 13 0 15 14 13 87 -2 58 -7 88 -15 91
-10 3 -13 -19 -13 -87z" />
        <path d="M2979 921 c-60 -60 -24 -151 60 -151 32 0 44 6 65 31 35 41 34 83 -3
120 -40 39 -82 39 -122 0z m99 -23 c20 -20 15 -76 -9 -88 -50 -27 -104 23 -81
75 9 19 19 25 45 25 18 0 38 -5 45 -12z" />
        <path d="M3236 929 c-24 -19 -26 -27 -26 -90 0 -55 3 -69 15 -69 12 0 15 13
15 58 0 70 9 85 46 80 28 -3 29 -5 34 -68 4 -51 9 -66 23 -68 15 -3 17 5 17
63 0 57 -3 69 -25 90 -30 30 -64 32 -99 4z" />
        <path d="M8606 861 c-10 -16 6 -42 23 -39 9 2 17 13 19 26 3 16 -2 22 -17 22
-11 0 -22 -4 -25 -9z" />
        <path d="M9590 844 c0 -33 33 -30 38 4 3 17 -2 22 -17 22 -16 0 -21 -6 -21
-26z" />
        <path d="M9790 844 c0 -33 33 -30 38 4 3 17 -2 22 -17 22 -16 0 -21 -6 -21
-26z" />
        <path d="M8435 704 c-15 -15 -13 -19 22 -53 22 -21 42 -33 48 -28 6 5 -2 19
-22 36 -37 31 -41 47 -15 54 15 4 15 5 0 6 -9 0 -24 -6 -33 -15z" />
        <path d="M8600 660 c0 -41 4 -60 13 -60 8 0 12 19 12 60 0 41 -4 60 -12 60 -9
0 -13 -19 -13 -60z" />
        <path d="M8810 707 c21 -11 25 -20 25 -54 0 -32 3 -39 13 -31 20 17 14 65 -10
82 -12 9 -29 16 -38 16 -8 0 -4 -6 10 -13z" />
        <path d="M8998 713 c6 -2 18 -2 25 0 6 3 1 5 -13 5 -14 0 -19 -2 -12 -5z" />
        <path d="M9184 688 c6 -33 4 -37 -16 -41 -19 -4 -19 -4 5 -6 20 -1 31 -7 34
-21 3 -11 12 -20 19 -20 10 0 7 14 -11 57 -32 71 -40 79 -31 31z" />
        <path d="M9330 713 c0 -8 79 -113 85 -113 3 0 4 28 3 63 -1 59 -1 60 -7 18
l-6 -45 -28 42 c-24 37 -47 54 -47 35z" />
        <path d="M9630 660 c0 -41 4 -60 13 -60 8 0 12 19 12 60 0 41 -4 60 -12 60 -9
0 -13 -19 -13 -60z" />
        <path d="M9705 660 c0 -41 4 -60 13 -60 8 0 12 19 12 60 0 41 -4 60 -12 60 -9
0 -13 -19 -13 -60z" />
        <path d="M9825 660 c0 -47 3 -60 15 -60 12 0 14 11 12 54 -4 50 -2 55 20 59
16 3 13 5 -12 6 l-35 1 0 -60z" />
        <path d="M9988 660 c3 -40 8 -60 17 -60 8 0 11 9 7 25 -5 27 15 35 24 10 4 -9
15 -20 26 -26 19 -10 19 -10 3 15 -16 23 -16 27 -1 41 20 20 20 20 0 39 -8 9
-30 16 -47 16 l-32 0 3 -60z m62 25 c0 -18 -5 -25 -20 -25 -15 0 -20 7 -20 25
0 18 5 25 20 25 15 0 20 -7 20 -25z" />
        <path d="M10170 660 c0 -41 4 -60 13 -60 8 0 11 16 10 54 -3 53 -2 55 25 59
22 3 20 4 -10 6 l-38 1 0 -60z" />
        <path d="M8750 685 c-11 -30 1 -70 26 -79 9 -4 19 -4 22 -1 3 3 1 5 -5 5 -19
0 -36 56 -23 79 7 14 7 21 0 21 -6 0 -15 -11 -20 -25z" />
        <path d="M8962 698 c-16 -16 -15 -63 1 -76 9 -8 12 1 12 39 0 27 0 49 0 49 -1
0 -6 -5 -13 -12z" />
        <path d="M9030 636 c0 -36 17 -41 22 -6 3 20 0 30 -9 30 -7 0 -13 -11 -13 -24z" />
        <path d="M1002 638 c-21 -21 -13 -38 23 -54 19 -8 35 -18 35 -23 0 -15 -30
-21 -51 -11 -13 7 -19 7 -19 1 0 -17 49 -25 65 -11 24 20 17 39 -20 54 -19 8
-35 19 -35 24 0 17 32 23 48 10 13 -11 14 -10 10 2 -6 19 -40 24 -56 8z" />
        <path d="M1152 593 l3 -58 35 -1 c26 -1 28 -1 8 3 -26 4 -28 8 -28 53 0 27 -5
52 -11 55 -7 5 -9 -13 -7 -52z" />
        <path d="M1322 634 c-32 -22 -30 -69 4 -91 24 -15 29 -15 53 -2 36 20 41 71 9
93 -28 20 -38 20 -66 0z m62 -10 c31 -31 11 -84 -33 -84 -16 0 -41 30 -41 50
0 22 25 50 45 50 7 0 21 -7 29 -16z" />
        <path d="M1522 634 c-17 -12 -22 -24 -20 -47 6 -61 88 -77 96 -18 3 16 -1 21
-20 20 -17 -1 -18 -3 -5 -6 22 -6 22 -29 1 -37 -47 -18 -82 37 -48 75 13 14
26 18 44 14 19 -4 21 -3 10 5 -21 14 -32 13 -58 -6z" />
        <path d="M1697 632 c-11 -12 -17 -35 -16 -63 0 -36 2 -40 9 -21 7 16 18 22 39
22 23 0 31 -5 34 -22 2 -13 5 0 6 29 1 42 -3 54 -18 63 -27 14 -35 13 -54 -8z
m51 -4 c7 -7 12 -20 12 -30 0 -14 -8 -18 -35 -18 -39 0 -46 17 -19 44 19 19
26 20 42 4z" />
        <path d="M1866 628 c-18 -25 -21 -84 -6 -93 6 -4 10 13 10 43 0 37 4 52 16 56
26 10 43 -12 47 -62 l3 -47 2 52 c2 43 -2 54 -17 63 -28 15 -38 13 -55 -12z" />
        <path d="M2133 590 c0 -36 2 -53 4 -37 4 22 9 27 33 27 24 0 29 -5 33 -27 2
-16 4 1 4 37 0 36 -2 53 -4 38 -4 -23 -9 -28 -33 -28 -24 0 -29 5 -33 28 -2
15 -4 -2 -4 -38z" />
        <path d="M2300 590 l0 -60 33 1 c31 2 31 2 4 6 -22 4 -28 9 -25 26 2 14 9 21
20 19 9 -1 19 2 23 8 4 6 -4 10 -19 10 -38 0 -36 37 2 43 25 4 25 4 -5 6 l-33
1 0 -60z" />
        <path d="M2451 588 c1 -35 4 -53 6 -40 2 12 11 22 20 22 8 0 24 -10 34 -22
l20 -23 -11 22 c-8 17 -7 28 2 43 18 28 0 54 -41 58 l-31 3 1 -63z m58 43 c21
-13 5 -41 -24 -41 -20 0 -25 5 -25 25 0 26 22 33 49 16z" />
        <path d="M2620 590 l0 -60 33 1 c30 2 30 2 5 6 -34 5 -41 43 -8 43 11 0 20 5
20 10 0 6 -9 10 -20 10 -33 0 -26 38 8 43 25 4 25 4 -5 6 l-33 1 0 -60z" />
    </g>
</svg>