<?xml version="1.0" standalone="no"?>
<!DOCTYPE svg PUBLIC "-//W3C//DTD SVG 20010904//EN"
 "http://www.w3.org/TR/2001/REC-SVG-20010904/DTD/svg10.dtd">
<svg version="1.0" xmlns="http://www.w3.org/2000/svg"
 width="512.000000pt" height="512.000000pt" viewBox="0 0 512.000000 512.000000"
 preserveAspectRatio="xMidYMid meet">
<metadata>
Created by potrace 1.16, written by Peter Selinger 2001-2019
</metadata>
<g transform="translate(0.000000,512.000000) scale(0.100000,-0.100000)"
fill="#0417ec" stroke="none">
<path d="M2419 4850 c22 -28 55 -81 73 -118 18 -37 53 -92 79 -123 l46 -57 44
51 c24 28 60 85 80 127 20 41 51 93 69 115 l32 40 -39 7 c-21 4 -125 7 -231 7
l-192 1 39 -50z"/>
<path d="M1469 4648 c-266 -134 -449 -266 -654 -472 -134 -135 -262 -299 -360
-462 -65 -108 -74 -135 -32 -96 67 62 186 53 254 -20 36 -38 52 -90 73 -235
22 -154 90 -582 95 -600 2 -6 24 8 48 33 39 39 49 44 88 44 24 -1 62 -8 84
-16 80 -31 75 -33 75 34 0 33 9 113 20 177 50 291 176 538 382 751 115 118
217 194 362 270 170 89 314 132 523 155 l105 12 -5 71 c-2 39 -12 88 -21 108
l-16 37 -82 -31 c-157 -58 -343 -48 -482 24 -79 42 -171 134 -225 226 -24 39
-49 72 -55 72 -7 0 -87 -37 -177 -82z" fill="#0417ec" stroke="none"/>
<path d="M3511 4626 c-160 -248 -456 -324 -752 -192 -24 10 -50 -61 -57 -151
-4 -70 -4 -73 18 -73 12 0 66 -9 119 -20 285 -58 524 -185 724 -386 248 -247
389 -557 413 -907 8 -109 1 -103 79 -73 22 8 60 15 84 16 39 0 49 -5 88 -44
24 -25 46 -39 48 -33 5 18 73 446 95 600 21 145 37 197 73 235 68 73 187 82
254 20 42 -39 33 -12 -31 93 -241 402 -587 723 -1003 933 -51 25 -97 46 -101
46 -5 0 -28 -29 -51 -64z" fill="#0417ec" stroke="none"/>
<path d="M297 3403 c-88 -211 -153 -458 -176 -675 -14 -125 -14 -431 0 -556
64 -598 375 -1188 830 -1576 102 -87 239 -190 227 -170 -6 8 65 451 76 481 12
30 51 43 103 34 47 -7 52 -6 57 13 8 29 7 131 0 151 -4 9 -43 40 -88 69 -161
104 -421 343 -631 581 -135 153 -191 285 -255 605 -56 281 -91 633 -93 952 -1
109 -3 198 -4 198 0 0 -21 -48 -46 -107z" fill="#0417ec" stroke="none"/>
<path d="M4773 3308 c-2 -318 -42 -711 -99 -981 -62 -296 -118 -424 -249 -572
-218 -246 -468 -476 -631 -581 -45 -29 -84 -60 -88 -69 -7 -20 -8 -122 0 -151
5 -19 10 -20 57 -13 52 9 91 -5 103 -34 2 -7 22 -115 44 -242 31 -181 36 -232
27 -244 -21 -27 145 100 245 185 387 334 681 841 782 1349 37 184 46 284 46
493 0 210 -11 326 -46 502 -29 139 -104 376 -155 488 l-34 73 -2 -203z" fill="#0417ec" stroke="none"/>
<path d="M2550 1249 c0 -11 -20 -99 -44 -194 -56 -214 -65 -274 -44 -289 42
-31 41 -41 -17 -384 -30 -180 -58 -339 -61 -355 l-6 -27 182 0 182 0 -6 27
c-30 146 -115 686 -110 696 4 7 16 22 27 34 25 29 21 63 -38 296 -25 97 -45
185 -45 197 0 11 -4 20 -10 20 -5 0 -10 -9 -10 -21z" fill="#0417ec" stroke="none"/>
</g>
</svg>
